<svg xmlns="http://www.w3.org/2000/svg" viewBox="0 0 800 600" width="800" height="600"><rect width="800" height="600" fill="#232B3C"/><line x1="400" y1="110" x2="250" y2="250" stroke="#3E4A66" stroke-width="2.5"/><line x1="400" y1="110" x2="550" y2="250" stroke="#3E4A66" stroke-width="2.5"/><line x1="250" y1="250" x2="170" y2="390" stroke="#3E4A66" stroke-width="2.5"/><line x1="250" y1="250" x2="330" y2="390" stroke="#3E4A66" stroke-width="2.5"/><line x1="550" y1="250" x2="470" y2="390" stroke="#3E4A66" stroke-width="2.5"/><line x1="550" y1="250" x2="630" y2="390" stroke="#3E4A66" stroke-width="2.5"/><circle cx="400" cy="110" r="34" fill="#232B3C" stroke="#E8A64A" stroke-width="3"/><circle cx="400" cy="110" r="34" fill="#E8A64A" fill-opacity=".14"/><circle cx="250" cy="250" r="34" fill="#232B3C" stroke="#6E8FF0" stroke-width="3"/><circle cx="250" cy="250" r="34" fill="#6E8FF0" fill-opacity=".14"/><circle cx="550" cy="250" r="34" fill="#232B3C" stroke="#6E8FF0" stroke-width="3"/><circle cx="550" cy="250" r="34" fill="#6E8FF0" fill-opacity=".14"/><circle cx="170" cy="390" r="34" fill="#232B3C" stroke="#6E8FF0" stroke-width="3"/><circle cx="170" cy="390" r="34" fill="#6E8FF0" fill-opacity=".14"/><circle cx="330" cy="390" r="34" fill="#232B3C" stroke="#6E8FF0" stroke-width="3"/><circle cx="330" cy="390" r="34" fill="#6E8FF0" fill-opacity=".14"/><circle cx="470" cy="390" r="34" fill="#232B3C" stroke="#6E8FF0" stroke-width="3"/><circle cx="470" cy="390" r="34" fill="#6E8FF0" fill-opacity=".14"/><circle cx="630" cy="390" r="34" fill="#232B3C" stroke="#6E8FF0" stroke-width="3"/><circle cx="630" cy="390" r="34" fill="#6E8FF0" fill-opacity=".14"/></svg>